<svg width="24" height="24" viewBox="0 0 24 24" fill="none" xmlns="http://www.w3.org/2000/svg">
<rect width="24" height="24" fill="#D8D8D8"/>
<g id="&#208;&#158;&#209;&#130;&#208;&#181;&#208;&#187;&#209;&#140;">
<g clip-path="url(#clip0_0_1)">
<rect x="-31" y="-904" width="375" height="1066" rx="40" fill="#F6F6F9"/>
<g id="Frame 579">
<rect x="-31" y="-366" width="375" height="428" rx="12" fill="white"/>
<g id="Frame 582">
<rect x="-15" y="-138" width="343" height="184" rx="15" fill="#FBFBFC"/>
<g id="Group 5">
<g id="Frame 581">
<g id="vuesax/linear/close-square">
<g id="vuesax/linear/close-square_2">
<g id="close-square">
<path id="Vector" d="M9.17004 14.83L14.83 9.17004" stroke="black" stroke-width="2" stroke-linecap="round" stroke-linejoin="round"/>
<path id="Vector_2" d="M14.83 14.83L9.17004 9.17004" stroke="black" stroke-width="2" stroke-linecap="round" stroke-linejoin="round"/>
<path id="Vector_3" d="M9 22H15C20 22 22 20 22 15V9C22 4 20 2 15 2H9C4 2 2 4 2 9V15C2 20 4 22 9 22Z" stroke="black" stroke-width="2" stroke-linecap="round" stroke-linejoin="round"/>
</g>
</g>
</g>
</g>
</g>
</g>
</g>
</g>
</g>
<defs>
<clipPath id="clip0_0_1">
<rect x="-31" y="-904" width="375" height="1066" rx="40" fill="white"/>
</clipPath>
</defs>
</svg>
