<svg width="24" height="24" viewBox="0 0 24 24" fill="none" xmlns="http://www.w3.org/2000/svg">
<rect width="24" height="24" fill="#D8D8D8"/>
<g clip-path="url(#clip0_0_1)">
<rect x="-31" y="-846" width="375" height="1066" rx="40" fill="#F6F6F9"/>
<rect x="-31" y="-308" width="375" height="428" rx="12" fill="white"/>
<rect x="-15" y="-80" width="343" height="184" rx="15" fill="#FBFBFC"/>
<path d="M9 22H15C20 22 22 20 22 15V9C22 4 20 2 15 2H9C4 2 2 4 2 9V15C2 20 4 22 9 22Z" stroke="black" stroke-width="2" stroke-linecap="round" stroke-linejoin="round"/>
<path d="M7.75 12L10.58 14.83L16.25 9.17004" stroke="black" stroke-width="2" stroke-linecap="round" stroke-linejoin="round"/>
</g>
<defs>
<clipPath id="clip0_0_1">
<rect x="-31" y="-846" width="375" height="1066" rx="40" fill="white"/>
</clipPath>
</defs>
</svg>
